<svg width="526" height="306" xmlns="http://www.w3.org/2000/svg"><path d="M222.66 70.722c9.096-1.743 15.856-10.605 15.856-19.363 0-9.3-6.76-14.962-15.855-13.466-8.577 1.416-15.597 9.492-15.597 19.033 0 8.995 7.02 15.444 15.597 13.796m-27.128 16.981c0-53.503-35.133-78.396-88.716-85.602C43.648-6.991 0 11.705 0 92.364c0 50.217 20.228 85.549 25.907 93.488 10.289 13.128 19.871-11.605 19.871-18.966 0-4.133-1.419-7.424-5.322-7.458-.71-1.312-13.486-18.912-13.486-55.886 0-52.532 23.067-80.141 80.2-71.608 43.65 4.65 61.038 30.65 61.038 60.127.002 55.44-40.81 72.219-57.49 71.03-10.646-.39-4.612 29.748 1.776 29.717 22.357.228 46.84 6.9 46.843 41.26 0 22.092-14.905 42.353-34.777 44.453-20.939 2.079-32.293-13.9-32.295-52.368V77.402c.002-9.638-8.16-18.783-19.871-21.665-4.969-1.216-9.227.395-9.227 4.487 0 2.862 1.42 5.704 1.42 13.455v148.135c-.001 49.53 13.838 88.621 60.327 83.757 35.132-4.598 62.1-40.881 62.103-78.017 0-32.33-16.68-47.405-37.262-51.777 25.904-18.085 45.779-47.516 45.778-88.074M388.23 237.72c-4.154.989-6.75-4.095-6.75-11.51-.01-14.35 5.712-24.806 14.03-34.101v25.304c0 4.519 1.038 18.399-7.28 20.308m95.277-138.122c-2.164-7.972 2.721-12.691 5.577-11.962 2.885.758 4.462 4.22 5.298 9.506-5.221 3.837-9.885 5.602-10.875 2.456m27.425-22.6c-.452 2.523-2.404 5.813-5.087 9.141-3.789-6.225-8.626-10.666-13.895-12.163-4.77-1.333-8.722-.93-11.867.72-6.125 3.213-9.193 11.165-9.193 20.384 0 0 .058 16.336 9.193 19.914 3.54 1.38 8.443.853 15.232-3.29.01 1.074.01 2.177.01 3.3 0 .421-.029 1.045-.087 1.803-.394 5.055-2.144 16.508-5.635 21.045-3.375 4.308-8.058 6.677-15.337 5.67-10.136-1.372-18.713-11.224-18.713-30.188 0-22.36 7.798-29.775 11.962-34.389 6.75-2.6 1.558-15.367-5.202-16.451-5.722-1.295-26.512 17.266-26.512 51.33 0 2.695.164 5.314.481 7.856-5.212 13.18-12.703 23.453-21.011 32.528v-63.31c0-5.564-5.462-10.092-14.04-9.459-3.644.269-6.76 2.235-6.76 4.595 0 1.66 1.039 2.974 1.039 7.472v26.716c-1.818 9.678-7.02 22.897-17.415 24.815-8.78 1.631-14.405-3.913-14.78-15.683.077-.279.154-.557.221-.825.26-1.027.27-1.506.26-1.746a7.1 7.1 0 0 0-.423-2.36c1.548-32.825 23.742-50.974 42.801-51.761 2.596-.144 5.193.211 7.53.134 2.605-.086 3.384-1.487 3.384-5.439 0-6.024-4.942-9.736-11.962-9.42-31.704 1.142-61.86 32.394-61.86 73.757 0 3.818.355 7.367 1.048 10.61-2.856 7.558-7.03 14.283-13.26 15.97-6.76 1.833-6.76-7.405-6.76-9.659V96.884c0-11.453-4.165-24.403-21.58-20.509-12.731 2.878-22.088 16.144-29.107 32.48V97.172c0-6.216-5.462-10.091-14.04-8.087-3.635.854-6.76 3.425-6.76 6.063 0 1.842 1.048 3.175 1.048 8.173v45.698c-.423 1.094-.779 2.35-1.038 3.808-2.347 12.212-7.02 30.524-17.425 33.536-6.75 1.928-6.75-8.01-6.75-10.418v-68.058c0-6.427-5.462-10.58-14.04-8.893-3.634.72-6.76 3.214-6.76 5.929 0 1.908 1.039 3.338 1.039 8.498v72.539c0 13.87 8.058 23.473 21.838 19.386 9.924-2.993 17.444-9.966 23.136-18.398.106 9.544 7.309 9.113 12.472 7.482 7.54-2.379 7.28-8.518 7.28-13.449v-37.88c1.817-21.123 17.934-47.368 25.473-49.095 4.933-1.18 5.452 5.286 5.452 13.152v51.482c0 12.989 8.058 21.363 21.838 17.363 11.04-3.185 19.155-10.696 25.079-19.502 5.193 5.161 12.809 7.252 22.752 5.142 9.096-1.861 16.116-6.85 21.309-12.336v24.835c-17.155 16.508-32.233 32.998-32.233 57.516 0 15.607 10.404 24.7 24.954 21.046 13.26-3.367 27.04-14.35 27.04-38.686v-40.26c9.808-8.787 20.126-18.158 28.464-31.703 6.154 8.69 16.02 14.561 30.011 16.029 14.819 1.832 24.694-2.005 31.195-9.458 7.597-9.44 9.097-23.31 9.097-31.233 0-.192 0-.394-.01-.585a65.22 65.22 0 0 0-2.789-18.38c3.578-3.616 7.472-7.904 11.713-12.959 9.722-11.569-10.578-16.46-12.02-8.47" fill="#26114E" fill-rule="evenodd"/></svg>